<svg width="27" height="32" viewBox="0 0 27 32" fill="none" xmlns="http://www.w3.org/2000/svg">
<path d="M13.1569 4.11426C11.2028 4.11426 9.32876 4.78852 7.94702 5.98871C6.56528 7.1889 5.78902 8.81671 5.78902 10.514V11.2192C5.42118 11.2732 5.08724 11.4386 4.84641 11.686C4.60557 11.9335 4.4734 12.2471 4.47334 12.5711V14.1711C4.4733 14.5011 4.61033 14.8201 4.85926 15.0695C5.10819 15.3189 5.45232 15.482 5.82849 15.5287C5.9614 16.6197 6.41475 17.6628 7.14506 18.5579C7.87538 19.453 8.85817 20.1701 9.99922 20.6405V22.7433H9.47295C6.96057 22.7433 4.55108 23.6102 2.77456 25.1533C0.99804 26.6964 0 28.7893 0 30.9716V32.0001H26.3137V30.9716C26.3137 28.7893 25.3157 26.6964 23.5392 25.1533C21.7627 23.6102 19.3532 22.7433 16.8408 22.7433H16.3145V20.6417C17.4556 20.1713 18.4384 19.4541 19.1687 18.559C19.899 17.6639 20.3523 16.6209 20.4852 15.5299C20.8616 15.4831 21.206 15.3199 21.4549 15.0702C21.7039 14.8206 21.8408 14.5013 21.8404 14.1711V12.5711C21.8403 12.2471 21.7082 11.9335 21.4673 11.686C21.2265 11.4386 20.8926 11.2732 20.5247 11.2192V10.514C20.5247 8.81671 19.7485 7.1889 18.3667 5.98871C16.985 4.78852 15.1109 4.11426 13.1569 4.11426Z" fill="#EDB98A"/>
<path d="M9.99939 20.6404V21.5546C10.9861 21.9615 12.0648 22.1719 13.157 22.1706C14.2872 22.1706 15.3582 21.95 16.3147 21.5546V20.6404C15.328 21.0472 14.2492 21.2576 13.157 21.2564C12.0648 21.2576 10.9861 21.0472 9.99939 20.6404Z" fill="black" fill-opacity="0.1"/>
<path d="M13.1569 25.9477C15.1186 25.9477 16.7092 24.6677 16.7092 23.0906C16.7092 22.9752 16.7013 22.8609 16.6829 22.7478H16.8408C19.3532 22.7478 21.7627 23.6147 23.5392 25.1578C25.3157 26.7009 26.3137 28.7938 26.3137 30.9761V31.9989H0V30.9761C0 28.7938 0.99804 26.7009 2.77456 25.1578C4.55108 23.6147 6.96057 22.7478 9.47295 22.7478H9.63083C9.61241 22.8609 9.60452 22.9752 9.60452 23.0906C9.60452 24.6677 11.1952 25.9477 13.1569 25.9477Z" fill="#E6E6E6"/>
<path d="M9.0493 22.7559L9.07824 22.6279C8.6888 22.6336 8.28883 22.7422 8.28883 22.7422L8.23357 22.8176C5.9553 23.079 3.86407 24.0508 2.34935 25.5519C0.834627 27.0531 -0.000322811 28.9812 9.36241e-08 30.9774V31.999H9.73608C9.73608 31.999 8.3283 26.1067 9.04667 22.7651L9.0493 22.7559ZM16.5777 31.999C16.5777 31.999 18.0249 25.9421 17.2355 22.6279C17.6249 22.6336 18.0249 22.7422 18.0249 22.7422L18.0802 22.8176C20.3584 23.079 22.4497 24.0508 23.9644 25.5519C25.4791 27.0531 26.3141 28.9812 26.3137 30.9774V31.999H16.5777Z" fill="#A7FFC4"/>
<path fill-rule="evenodd" clip-rule="evenodd" d="M9.07828 22.6279C8.28887 25.9421 9.73612 31.999 9.73612 31.999H7.63102L5.78906 27.8849L6.57847 26.8564L5.78906 26.1707L8.28887 22.7422C8.28887 22.7422 8.68884 22.6336 9.07828 22.6279ZM17.2355 22.6279C18.025 25.9421 16.5777 31.999 16.5777 31.999H18.6828L20.5248 27.8849L19.7353 26.8564L20.5248 26.1707L18.025 22.7422C18.025 22.7422 17.625 22.6336 17.2355 22.6279Z" fill="black" fill-opacity="0.15"/>
<path d="M9.99938 21.8896C9.10866 22.4153 8.55212 23.1605 8.55212 23.9867C8.55212 24.8324 9.13497 25.5924 10.0625 26.1204L10.8441 25.5855L11.4466 25.6232L11.3151 25.2632L11.3256 25.2564C10.523 24.8964 9.99938 24.3078 9.99938 23.6427V21.8896ZM16.3147 23.6427C16.3147 24.3078 15.791 24.8964 14.9885 25.2564L14.999 25.2632L14.8674 25.6232L15.47 25.5855L16.2515 26.1204C17.1791 25.5924 17.7619 24.8324 17.7619 23.9867C17.7619 23.1605 17.2054 22.4153 16.3147 21.8896V23.6427Z" fill="#F2F2F2"/>
<path d="M19.9219 29.2298L20.0363 28.9738L20.8613 28.4367C20.9537 28.3768 21.0662 28.3449 21.1814 28.346C21.2967 28.347 21.4084 28.3809 21.4994 28.4424L22.3677 29.0275L19.9219 29.2298Z" fill="#E6E6E6"/>
<path fill-rule="evenodd" clip-rule="evenodd" d="M11.3231 18.4817C11.4073 17.6795 12.1967 17.1423 13.1571 17.1423C14.1228 17.1423 14.9149 17.6852 14.9925 18.4966C14.9965 18.54 14.878 18.5731 14.8188 18.548C14.0899 18.2314 13.536 18.0726 13.1571 18.0726C12.7835 18.0726 12.2361 18.228 11.5191 18.5377C11.4533 18.5663 11.3178 18.5297 11.3217 18.4817H11.3231Z" fill="black" fill-opacity="0.7"/>
<path fill-rule="evenodd" clip-rule="evenodd" d="M11.5781 14.8567C11.5781 15.3618 12.2846 15.7709 13.1569 15.7709C14.0293 15.7709 14.7358 15.3618 14.7358 14.8567" fill="black" fill-opacity="0.16"/>
<path d="M9.34176 12.114C8.70497 12.114 8.15764 12.4169 7.91555 12.8511C7.84451 12.9768 7.96687 13.0626 8.08396 12.9791C8.45086 12.7291 8.90719 12.5988 9.37333 12.6111C9.29409 12.7009 9.24163 12.8062 9.22063 12.9178C9.19963 13.0295 9.21073 13.1439 9.25295 13.2508C9.29517 13.3578 9.36721 13.4541 9.46263 13.531C9.55805 13.6079 9.6739 13.6632 9.79986 13.6918C9.92581 13.7204 10.058 13.7216 10.1845 13.6951C10.3111 13.6686 10.4282 13.6153 10.5253 13.54C10.6225 13.4647 10.6967 13.3697 10.7413 13.2635C10.7859 13.1573 10.7996 13.0431 10.7811 12.9311C10.782 12.9023 10.7767 12.8736 10.7653 12.8466L10.7456 12.8031C10.7022 12.6944 10.628 12.597 10.5298 12.5197C10.2496 12.2649 9.80225 12.114 9.34176 12.114ZM16.9727 12.114C16.336 12.114 15.7886 12.4169 15.5465 12.8511C15.4755 12.9768 15.5979 13.0626 15.7149 12.9791C16.0818 12.7291 16.5382 12.5988 17.0043 12.6111C16.9251 12.7009 16.8726 12.8062 16.8516 12.9178C16.8306 13.0295 16.8417 13.1439 16.8839 13.2508C16.9262 13.3578 16.9982 13.4541 17.0936 13.531C17.189 13.6079 17.3049 13.6632 17.4308 13.6918C17.5568 13.7204 17.689 13.7216 17.8155 13.6951C17.9421 13.6686 18.0592 13.6153 18.1563 13.54C18.2535 13.4647 18.3277 13.3697 18.3723 13.2635C18.4169 13.1573 18.4306 13.0431 18.4121 12.9311C18.413 12.9023 18.4077 12.8736 18.3963 12.8466L18.3766 12.8031C18.3332 12.6944 18.259 12.597 18.1608 12.5197C17.8806 12.2649 17.4332 12.114 16.9727 12.114Z" fill="black" fill-opacity="0.6"/>
<path d="M10.7925 10.0111C10.5978 10.9687 8.93743 11.6304 7.73489 11.2019C7.6712 11.1783 7.59951 11.1771 7.53478 11.1984C7.47006 11.2197 7.41731 11.2619 7.38755 11.3161C7.33097 11.427 7.39281 11.5561 7.52569 11.6019C9.03216 12.139 11.057 11.331 11.3096 10.0819C11.3148 10.0531 11.3133 10.0236 11.3053 9.99523C11.2972 9.96688 11.2827 9.94021 11.2626 9.9168C11.2425 9.89338 11.2172 9.87368 11.1882 9.85886C11.1593 9.84404 11.1272 9.83439 11.0938 9.83049C11.0264 9.82037 10.9572 9.83344 10.9007 9.86694C10.8442 9.90043 10.8049 9.95171 10.7912 10.0099L10.7925 10.0111ZM15.5211 10.0111C15.7158 10.9687 17.3762 11.6304 18.5788 11.2019C18.713 11.155 18.8682 11.2053 18.9248 11.3161C18.9814 11.427 18.9195 11.5561 18.7867 11.6019C17.2815 12.139 15.2554 11.331 15.0027 10.0819C14.9975 10.0531 14.999 10.0236 15.0071 9.99523C15.0152 9.96688 15.0297 9.94021 15.0498 9.9168C15.0699 9.89338 15.0952 9.87368 15.1241 9.85886C15.1531 9.84404 15.1852 9.83439 15.2185 9.83049C15.2859 9.82037 15.3552 9.83344 15.4117 9.86694C15.4682 9.90043 15.5074 9.95171 15.5211 10.0099V10.0111Z" fill="black" fill-opacity="0.6"/>
<path d="M21.5769 19.1992H21.3138V25.6059C21.013 25.6351 20.7366 25.7632 20.5412 25.9639C20.3458 26.1647 20.2463 26.4228 20.2631 26.6852C20.2799 26.9477 20.4118 27.1946 20.6317 27.3753C20.8516 27.5559 21.1427 27.6566 21.4454 27.6566C21.748 27.6566 22.0392 27.5559 22.259 27.3753C22.4789 27.1946 22.6108 26.9477 22.6277 26.6852C22.6445 26.4228 22.545 26.1647 22.3496 25.9639C22.1542 25.7632 21.8777 25.6351 21.5769 25.6059V19.1992ZM4.99928 20.1135H4.73615V26.5201C4.43538 26.5493 4.1589 26.6774 3.96349 26.8782C3.76809 27.0789 3.66859 27.337 3.68543 27.5995C3.70227 27.862 3.83417 28.1089 4.05404 28.2895C4.27392 28.4702 4.56507 28.5708 4.86771 28.5708C5.17036 28.5708 5.46151 28.4702 5.68138 28.2895C5.90126 28.1089 6.03316 27.862 6.05 27.5995C6.06684 27.337 5.96734 27.0789 5.77193 26.8782C5.57653 26.6774 5.30005 26.5493 4.99928 26.5201V20.1135Z" fill="#F4F4F4"/>
<path d="M13.1568 4.57127C14.61 4.57127 15.7881 3.54796 15.7881 2.28563C15.7881 1.02331 14.61 0 13.1568 0C11.7035 0 10.5254 1.02331 10.5254 2.28563C10.5254 3.54796 11.7035 4.57127 13.1568 4.57127Z" fill="#F4F4F4"/>
<path d="M7.953 8.86H18.3601C19.16 8.86 19.6521 9.19485 19.6521 9.88854V18.9705C19.6521 22.4515 22.6295 22.4458 22.6295 20.2185V11.7776C22.6295 7.86232 20.3626 2.39966 13.1565 2.39966C5.95052 2.39966 3.68359 7.86232 3.68359 11.7765V20.2173C3.68359 22.4458 6.66099 22.4504 6.66099 18.9694V9.88854C6.66099 9.19485 7.15175 8.86 7.953 8.86Z" fill="#B1E2FF"/>
<path d="M21.7972 7.65662H4.51697C5.71293 4.85671 8.32325 2.39966 13.1571 2.39966C17.9909 2.39966 20.6012 4.85671 21.7972 7.65662Z" fill="black" fill-opacity="0.2"/>
<path d="M7.65759 3.85469L9.14432 5.71405L10.7889 3.65698H7.98125C7.87205 3.72098 7.76416 3.78726 7.65759 3.85469ZM18.3331 3.65698H15.657L17.3016 5.71405L18.7423 3.91183C18.6107 3.82383 18.4739 3.73927 18.3331 3.65698ZM13.2229 5.71405L11.5783 3.65698H14.8676L13.2229 5.71405Z" fill="white" fill-opacity="0.5"/>
<path d="M8.68375 6.74262L7.03914 4.68555L5.39453 6.74262H8.68375ZM12.7624 6.74262L11.1178 4.68555L9.47316 6.74262H12.7624ZM15.1964 4.68555L16.841 6.74262H13.5518L15.1964 4.68555ZM20.9196 6.74262L19.275 4.68555L17.6304 6.74262H20.9196Z" fill="black" fill-opacity="0.5"/>
</svg>
