<svg width="20" height="20" viewBox="0 0 20 20" fill="none" xmlns="http://www.w3.org/2000/svg">
<g clip-path="url(#clip0_1_2916)">
<path d="M13.3333 16.6667V3.33341C13.3333 2.89139 13.1577 2.46746 12.8451 2.1549C12.5326 1.84234 12.1087 1.66675 11.6666 1.66675H8.33329C7.89127 1.66675 7.46734 1.84234 7.15478 2.1549C6.84222 2.46746 6.66663 2.89139 6.66663 3.33341V16.6667" stroke="#F54900" stroke-width="1.66667" stroke-linecap="round" stroke-linejoin="round"/>
<path d="M16.6666 5H3.33329C2.41282 5 1.66663 5.74619 1.66663 6.66667V15C1.66663 15.9205 2.41282 16.6667 3.33329 16.6667H16.6666C17.5871 16.6667 18.3333 15.9205 18.3333 15V6.66667C18.3333 5.74619 17.5871 5 16.6666 5Z" stroke="#F54900" stroke-width="1.66667" stroke-linecap="round" stroke-linejoin="round"/>
</g>
<defs>
<clipPath id="clip0_1_2916">
<rect width="20" height="20" fill="white"/>
</clipPath>
</defs>
</svg>
